<svg width="312" height="256" viewBox="0 0 312 256" fill="none" xmlns="http://www.w3.org/2000/svg">
<g clip-path="url(#clip0_1_953)">
<path d="M77.0106 233.593L77.6452 246.977L77.6452 246.978C77.7523 249.24 76.9569 251.452 75.4341 253.128C73.9113 254.803 71.7857 255.805 69.525 255.912L69.2479 255.925L68.209 234.01L77.0106 233.593Z" fill="#2F2E41"/>
<path d="M267.188 210.973C260.817 223.414 252.736 235.445 242.512 246.335C242.285 246.581 242.056 246.82 241.824 247.064L217.6 235.589C217.749 235.343 217.911 235.066 218.086 234.764C228.492 216.948 291.306 108.273 289.321 83.6592C289.552 85.6892 296.998 152.824 267.188 210.973Z" fill="#007922"/>
<path d="M247.186 248.549C246.847 248.742 246.499 248.93 246.149 249.113L227.977 240.504C228.231 240.324 228.527 240.111 228.867 239.871C234.434 235.871 250.989 223.87 267.188 210.973C284.596 197.113 301.596 182.221 304.121 175.113C303.608 176.743 287.675 226.291 247.186 248.549Z" fill="#007922"/>
<path d="M30.2288 255.391C45.7176 255.391 58.2737 242.827 58.2737 227.328C58.2737 211.829 45.7176 199.265 30.2288 199.265C14.74 199.265 2.18384 211.829 2.18384 227.328C2.18384 242.827 14.74 255.391 30.2288 255.391Z" fill="#C1926E"/>
<path d="M41.4626 215.552H18.9949C18.0021 215.553 17.0503 215.948 16.3483 216.65C15.6462 217.353 15.2514 218.305 15.2502 219.299V235.357C15.2514 236.351 15.6462 237.303 16.3482 238.006C17.0503 238.708 18.0021 239.103 18.9949 239.104H41.4626C42.4554 239.103 43.4073 238.708 44.1093 238.006C44.8113 237.303 45.2062 236.351 45.2073 235.357V219.299C45.2062 218.305 44.8113 217.353 44.1093 216.65C43.4072 215.948 42.4554 215.553 41.4626 215.552ZM41.4626 217.693C41.5968 217.693 41.7303 217.711 41.8601 217.745L30.2313 227.027L18.6706 217.726C18.7773 217.704 18.8859 217.693 18.9948 217.693H41.4626ZM41.4626 236.963H18.9949C18.5694 236.963 18.1615 236.793 17.8606 236.492C17.5598 236.191 17.3905 235.783 17.39 235.357V219.443L29.5584 229.233C29.7479 229.385 29.9836 229.469 30.2267 229.469C30.4698 229.469 30.7059 229.387 30.8959 229.235L43.0675 219.52V235.357C43.067 235.783 42.8978 236.191 42.5969 236.492C42.296 236.793 41.8881 236.963 41.4626 236.963Z" fill="white"/>
<path d="M138.461 186.812L144.736 186.864C145.371 186.869 145.999 186.736 146.578 186.473C147.156 186.21 147.67 185.824 148.083 185.342C148.497 184.86 148.801 184.294 148.973 183.682C149.146 183.071 149.183 182.429 149.082 181.802C148.974 181.127 148.709 180.486 148.308 179.933C147.907 179.379 147.382 178.927 146.774 178.613C146.167 178.3 145.495 178.133 144.811 178.127C144.128 178.121 143.453 178.275 142.84 178.578L136.922 181.5L116.682 186.016L108.011 177.145L103.03 185.354L114.731 194.4L138.461 186.812Z" fill="#FFB8B8"/>
<path d="M137.285 251.686L129.892 253.109C124.842 237.18 119.37 222.095 119.371 210.428C112.224 218.387 103.362 222.941 92.9258 224.371L94.0632 206.73L102.594 202.177L115.65 196.147C116.793 195.619 118.026 195.314 119.283 195.248C121.728 195.119 124.133 195.9 126.037 197.439C127.94 198.979 129.207 201.169 129.594 203.587L137.285 251.686Z" fill="#2F2E41"/>
<path d="M101.883 222.237L98.936 224.478C97.6689 225.441 96.1721 226.057 94.594 226.263C93.0159 226.468 91.4114 226.258 89.9398 225.651C81.4999 219.321 75.5039 221.189 70.0695 230.743C63.5511 223.382 61.9429 212.75 67.7603 201.75L100.034 202.462L106.574 200.47L101.883 222.237Z" fill="#2F2E41"/>
<path d="M91.1343 255.203C89.285 255.773 87.2944 255.673 85.5113 254.921C83.7282 254.169 82.2663 252.814 81.3817 251.092C78.4813 248.536 76.0341 244.876 73.9115 240.425C72.3886 237.16 71.0808 233.799 69.9967 230.363C68.528 225.824 70.9838 220.865 75.5548 219.507C75.6907 219.467 75.8283 219.429 75.9675 219.393C82.0695 217.825 88.3358 221.347 90.4216 227.295L96.4867 244.592C96.845 245.614 96.9987 246.696 96.9389 247.777C96.8791 248.859 96.6071 249.918 96.1384 250.894C95.6697 251.87 95.0135 252.744 94.2072 253.466C93.4009 254.188 92.4603 254.744 91.4392 255.103C91.3382 255.138 91.2366 255.172 91.1343 255.203Z" fill="#2F2E41"/>
<path opacity="0.2" d="M72.8787 238.455C72.8787 238.455 79.9875 246.422 81.4092 250.975L72.8787 238.455Z" fill="black"/>
<path d="M45.3079 200.856L42.9287 206.667C42.688 207.255 42.5783 207.888 42.6074 208.523C42.6364 209.157 42.8034 209.778 43.0968 210.342C43.3903 210.905 43.803 211.398 44.3062 211.785C44.8094 212.173 45.3911 212.446 46.0106 212.585C46.6773 212.735 47.3699 212.727 48.0327 212.56C48.6955 212.393 49.3099 212.073 49.8265 211.626C50.3431 211.178 50.7475 210.615 51.0071 209.983C51.2667 209.35 51.3743 208.665 51.3212 207.984L50.8086 201.4L54.1374 180.919L65.5898 176.159L59.8239 168.482L47.0836 175.992L45.3079 200.856Z" fill="#FFB8B8"/>
<path d="M102.167 201.75C93.9971 215.483 77.7096 220.8 63.7595 210.047C66.2135 201.979 74.1363 179.68 69.018 178.827C58.1506 183.387 58.1348 172.68 56.1021 167.321L80.8407 158.216L94.2053 161.915L96.9449 162.888C98.7278 163.521 100.274 164.685 101.376 166.224C102.478 167.763 103.083 169.602 103.109 171.495C97.4946 179.611 93.3387 188.268 102.167 201.75Z" fill="#FF5B59"/>
<path d="M105.295 190.653L95.4849 182.544L98.7549 163.623L112.12 177.849L105.295 190.653Z" fill="#DF1E1C"/>
<path d="M268.076 60.6669H266.674V22.2399C266.674 16.3415 264.332 10.6847 260.164 6.51392C255.996 2.34313 250.343 0 244.448 0H163.087C157.193 0 151.54 2.34313 147.372 6.51392C143.203 10.6847 140.862 16.3415 140.862 22.2399V233.054C140.862 238.952 143.203 244.609 147.372 248.78C151.54 252.951 157.193 255.294 163.087 255.294H244.448C250.342 255.294 255.996 252.951 260.164 248.78C264.332 244.609 266.674 238.952 266.674 233.054V88.0199H268.076L268.076 60.6669Z" fill="#3F3D56"/>
<path d="M245.345 5.78541H234.725C235.213 6.98366 235.4 8.28378 235.268 9.57121C235.136 10.8586 234.69 12.0939 233.969 13.168C233.247 14.2422 232.273 15.1223 231.132 15.7309C229.99 16.3394 228.717 16.6577 227.423 16.6577H180.813C179.52 16.6576 178.246 16.3393 177.105 15.7307C175.964 15.1222 174.99 14.2422 174.268 13.1682C173.547 12.0942 173.101 10.8591 172.969 9.57187C172.837 8.28461 173.023 6.98463 173.512 5.78647H163.591C159.189 5.78647 154.967 7.53634 151.854 10.6511C148.741 13.766 146.992 17.9905 146.992 22.3955V232.899C146.992 237.304 148.741 241.529 151.854 244.643C154.967 247.758 159.189 249.508 163.591 249.508H245.342C249.744 249.508 253.966 247.758 257.079 244.643C260.192 241.529 261.94 237.304 261.94 232.899V22.3945C261.94 17.9895 260.192 13.7649 257.079 10.6501C253.966 7.53528 249.744 5.7854 245.342 5.7854L245.345 5.78541Z" fill="white"/>
<path d="M204.608 237.745C209.642 237.745 213.723 233.661 213.723 228.624C213.723 223.587 209.642 219.504 204.608 219.504C199.574 219.504 195.494 223.587 195.494 228.624C195.494 233.661 199.574 237.745 204.608 237.745Z" fill="#E6E6E6"/>
<path d="M167.632 144.278C166.771 144.278 166.07 145.079 166.07 146.063C166.07 147.047 166.771 147.848 167.632 147.848H241.3C242.162 147.848 242.863 147.047 242.863 146.063C242.863 145.079 242.162 144.278 241.3 144.278H167.632Z" fill="#E6E6E6"/>
<path d="M167.632 186.373C166.771 186.373 166.07 187.173 166.07 188.157C166.07 189.141 166.771 189.942 167.632 189.942H241.3C242.162 189.942 242.863 189.141 242.863 188.157C242.863 187.173 242.162 186.373 241.3 186.373H167.632Z" fill="#E6E6E6"/>
<path d="M167.632 154.987C166.771 154.987 166.07 155.788 166.07 156.772C166.07 157.756 166.771 158.556 167.632 158.556H199.332C200.194 158.556 200.895 157.756 200.895 156.772C200.895 155.788 200.194 154.987 199.332 154.987H167.632Z" fill="#E6E6E6"/>
<path d="M167.632 165.194C166.771 165.194 166.07 165.995 166.07 166.979C166.07 167.963 166.771 168.764 167.632 168.764H241.3C242.162 168.764 242.863 167.963 242.863 166.979C242.863 165.995 242.162 165.194 241.3 165.194H167.632Z" fill="#E6E6E6"/>
<path d="M167.632 175.903C166.771 175.903 166.07 176.704 166.07 177.688C166.07 178.672 166.771 179.472 167.632 179.472H199.332C200.194 179.472 200.895 178.672 200.895 177.688C200.895 176.704 200.194 175.903 199.332 175.903H167.632Z" fill="#E6E6E6"/>
<path d="M181.54 63.011H227.398C227.904 63.0116 228.39 63.2132 228.748 63.5717C229.107 63.9301 229.308 64.4161 229.309 64.923V112.713C229.308 113.22 229.107 113.706 228.748 114.064C228.39 114.423 227.904 114.624 227.398 114.625H181.54C181.033 114.624 180.547 114.423 180.189 114.064C179.831 113.706 179.63 113.22 179.629 112.713V64.923C179.63 64.416 179.831 63.9301 180.189 63.5716C180.547 63.2132 181.033 63.0116 181.54 63.011Z" fill="#FEC091"/>
<path d="M217.626 104.77C217.797 104.77 217.966 104.737 218.124 104.672C218.281 104.607 218.424 104.511 218.545 104.391C218.666 104.27 218.762 104.127 218.827 103.969C218.893 103.812 218.926 103.643 218.926 103.472C218.926 103.302 218.893 103.133 218.828 102.975C218.762 102.817 218.667 102.674 218.546 102.554C218.425 102.433 218.282 102.337 218.125 102.272C217.967 102.207 217.798 102.173 217.628 102.174H191.311C191.141 102.173 190.972 102.207 190.814 102.272C190.656 102.337 190.513 102.432 190.392 102.553C190.272 102.673 190.176 102.816 190.11 102.974C190.045 103.131 190.011 103.3 190.011 103.471C190.011 103.642 190.045 103.811 190.11 103.968C190.175 104.126 190.271 104.269 190.391 104.39C190.512 104.51 190.655 104.606 190.813 104.671C190.97 104.736 191.139 104.77 191.31 104.77H217.626Z" fill="white"/>
<path d="M217.626 97.122C217.97 97.122 218.3 96.9853 218.544 96.7418C218.787 96.4984 218.924 96.1682 218.924 95.8239C218.924 95.4797 218.787 95.1495 218.544 94.9061C218.3 94.6626 217.97 94.5259 217.626 94.5259H191.311C190.967 94.5257 190.637 94.6623 190.394 94.9056C190.15 95.149 190.013 95.479 190.013 95.8233C190.013 96.1676 190.15 96.4978 190.393 96.7414C190.636 96.9849 190.966 97.1218 191.31 97.122H217.626Z" fill="white"/>
<path d="M204.469 72.8662C206.084 72.8662 207.662 73.3454 209.005 74.2432C210.348 75.141 211.395 76.4171 212.013 77.9101C212.631 79.4031 212.792 81.046 212.477 82.631C212.162 84.2159 211.385 85.6718 210.243 86.8145C209.101 87.9572 207.646 88.7354 206.062 89.0507C204.478 89.3659 202.836 89.2041 201.344 88.5857C199.852 87.9673 198.577 86.92 197.679 85.5764C196.782 84.2327 196.303 82.653 196.303 81.0369C196.306 78.8707 197.167 76.7938 198.698 75.2621C200.228 73.7303 202.304 72.8687 204.469 72.8662Z" fill="white"/>
<path d="M100.283 155.739H76.0419C75.5433 155.739 75.0652 155.54 74.7126 155.187C74.36 154.834 74.1617 154.356 74.1611 153.857V143.402C74.1611 139.686 75.6363 136.122 78.2621 133.495C80.8878 130.867 84.4492 129.391 88.1626 129.391C91.876 129.391 95.4373 130.867 98.0631 133.495C100.689 136.122 102.164 139.686 102.164 143.402V153.857C102.163 154.356 101.965 154.834 101.613 155.187C101.26 155.54 100.782 155.739 100.283 155.739Z" fill="#2F2E41"/>
<path d="M99.8464 149.764C102.566 144.786 100.737 138.545 95.7629 135.824C90.7882 133.103 84.551 134.932 81.8316 139.91C79.1122 144.888 80.9405 151.129 85.9151 153.85C90.8897 156.572 97.127 154.742 99.8464 149.764Z" fill="#FFB6B6"/>
<path d="M105.476 144.447H90.6534L90.5014 142.318L89.7414 144.447H87.459L87.1578 140.226L85.6515 144.447H81.2351V144.238C81.2384 141.3 82.4063 138.483 84.4827 136.405C86.5591 134.327 89.3743 133.158 92.3108 133.155H94.4006C97.3371 133.158 100.152 134.327 102.229 136.405C104.305 138.483 105.473 141.3 105.476 144.238V144.447Z" fill="#2F2E41"/>
<path d="M90.5321 157.691C90.4205 157.691 90.3091 157.681 90.1992 157.661L79.3452 155.745V137.795H91.2934L90.9976 138.14C86.882 142.943 89.9826 150.731 92.1972 154.946C92.3604 155.255 92.4332 155.603 92.4071 155.952C92.3811 156.3 92.2573 156.634 92.0499 156.915C91.8763 157.155 91.6482 157.351 91.3843 157.485C91.1205 157.62 90.8284 157.691 90.5321 157.691Z" fill="#2F2E41"/>
<path d="M126.669 246.314L140.061 246.313H140.061C142.325 246.314 144.495 247.213 146.096 248.815C147.696 250.416 148.595 252.588 148.595 254.853V255.13L126.67 255.131L126.669 246.314Z" fill="#2F2E41"/>
<path d="M311.649 256H0.350562C0.257587 256 0.16842 255.963 0.102677 255.897C0.0369338 255.831 0 255.742 0 255.649C0 255.556 0.0369338 255.467 0.102677 255.401C0.16842 255.335 0.257587 255.298 0.350562 255.298H311.649C311.742 255.298 311.832 255.335 311.897 255.401C311.963 255.467 312 255.556 312 255.649C312 255.742 311.963 255.831 311.897 255.897C311.832 255.963 311.742 256 311.649 256Z" fill="black"/>
</g>
<defs>
<clipPath id="clip0_1_953">
<rect width="312" height="256" fill="white"/>
</clipPath>
</defs>
</svg>
