<svg width="308" height="205" viewBox="0 0 308 205" fill="none" xmlns="http://www.w3.org/2000/svg">
<g clip-path="url(#clip0_1_914)">
<path d="M110.48 117.979C121.035 99.3833 141.169 85.1045 162.483 86.4801C146.761 103.603 137.594 125.743 136.602 148.984C136.252 157.948 136.795 167.955 130.852 174.668C127.154 178.844 121.502 180.867 115.944 181.291C110.387 181.716 104.831 180.71 99.3473 179.709L98.0171 180.118C97.5108 158.733 99.9244 136.576 110.48 117.979Z" fill="#007922"/>
<path d="M162.515 86.9276C146.753 94.5267 133.314 107.218 125.064 122.696C123.28 126.042 121.762 129.592 121.099 133.346C120.437 137.101 120.9 140.676 122.18 144.242C123.351 147.503 124.926 150.702 125.285 154.191C125.663 157.869 124.312 161.307 121.88 164.036C118.905 167.375 114.909 169.444 110.931 171.332C106.514 173.427 101.893 175.534 98.7648 179.445C98.3857 179.919 97.6737 179.302 98.0522 178.829C103.495 172.024 112.812 170.745 119.272 165.264C122.287 162.706 124.55 159.223 124.407 155.142C124.282 151.573 122.661 148.272 121.447 144.981C120.173 141.525 119.537 138.05 119.994 134.366C120.462 130.597 121.845 126.98 123.535 123.603C127.348 115.986 132.565 108.993 138.541 102.949C145.41 96.0005 153.415 90.2803 162.21 86.0355C162.754 85.773 163.056 86.6669 162.515 86.9276Z" fill="white"/>
<path d="M127.481 117.523C125.064 115.754 123.355 113.182 122.657 110.267C121.96 107.351 122.32 104.283 123.673 101.608C123.948 101.068 124.799 101.472 124.523 102.013C123.259 104.501 122.924 107.359 123.579 110.073C124.234 112.786 125.836 115.175 128.096 116.81C128.586 117.165 127.968 117.877 127.481 117.523Z" fill="white"/>
<path d="M121.369 142.667C127.424 141.781 132.922 138.642 136.769 133.876C137.15 133.404 137.862 134.02 137.481 134.492C133.47 139.444 127.741 142.699 121.438 143.608C120.837 143.694 120.772 142.753 121.369 142.667Z" fill="white"/>
<path d="M145.875 97.1605C146.668 98.0402 147.666 98.7091 148.78 99.107C149.894 99.5048 151.09 99.6193 152.259 99.4401C152.859 99.3463 152.924 100.287 152.328 100.38C151.035 100.572 149.715 100.444 148.483 100.007C147.251 99.5705 146.144 98.8381 145.26 97.8741C145.169 97.7903 145.113 97.6749 145.104 97.5514C145.095 97.4279 145.133 97.3056 145.211 97.2093C145.293 97.1152 145.409 97.0573 145.533 97.0481C145.657 97.039 145.78 97.0794 145.875 97.1605Z" fill="white"/>
<path d="M204.891 145.144C204.518 145.213 204.146 145.282 203.77 145.359C198.765 146.315 193.846 147.677 189.062 149.431C188.69 149.56 188.315 149.698 187.947 149.838C176.465 154.186 165.889 160.632 156.757 168.848C153.126 172.12 149.748 175.665 146.654 179.45C142.382 184.679 138.164 190.688 132.581 194.097C132.002 194.459 131.402 194.785 130.783 195.073L98.6186 181.711C98.5607 181.644 98.4994 181.584 98.4412 181.517L97.1326 181.042C97.2785 180.836 97.4343 180.625 97.5803 180.418C97.6645 180.298 97.7558 180.181 97.84 180.061C97.8984 179.982 97.9571 179.903 98.0053 179.828C98.0246 179.802 98.0443 179.776 98.0606 179.757C98.1088 179.682 98.1615 179.618 98.2066 179.55C99.0743 178.369 99.9518 177.191 100.839 176.018C100.842 176.011 100.842 176.011 100.852 176.006C107.636 167.083 115.223 158.649 123.847 151.636C124.106 151.425 124.369 151.207 124.643 151.002C128.548 147.862 132.702 145.048 137.065 142.586C139.458 141.246 141.917 140.028 144.434 138.937C150.94 136.13 157.847 134.366 164.902 133.709C178.964 132.401 193.288 135.612 204.074 144.46C204.349 144.687 204.618 144.91 204.891 145.144Z" fill="#007922"/>
<path d="M204.649 145.523C187.497 142.086 169.137 144.116 153.245 151.499C149.809 153.096 146.463 155.015 143.677 157.612C140.891 160.211 139.111 163.344 137.99 166.964C136.964 170.273 136.298 173.778 134.488 176.78C132.579 179.944 129.433 181.875 125.851 182.587C121.468 183.459 117.034 182.702 112.723 181.81C107.936 180.82 102.981 179.716 98.1318 180.952C97.5443 181.102 97.3465 180.18 97.9331 180.03C106.369 177.879 114.577 182.476 123.031 181.995C126.975 181.77 130.876 180.354 133.216 177.009C135.261 174.084 135.951 170.472 136.961 167.112C138.02 163.584 139.602 160.426 142.181 157.76C144.821 155.033 148.099 152.979 151.479 151.302C159.102 147.519 167.471 145.082 175.877 143.859C185.538 142.453 195.368 142.713 204.942 144.627C205.535 144.745 205.238 145.641 204.649 145.523Z" fill="white"/>
<path d="M158.284 148.826C157.418 145.957 157.6 142.872 158.795 140.124C159.991 137.376 162.123 135.142 164.811 133.823C165.356 133.558 165.792 134.393 165.247 134.659C162.742 135.883 160.756 137.963 159.648 140.525C158.54 143.086 158.382 145.96 159.204 148.628C159.382 149.207 158.461 149.403 158.284 148.826Z" fill="white"/>
<path d="M138.289 165.217C143.656 168.161 149.933 168.97 155.869 167.484C156.457 167.336 156.655 168.258 156.068 168.406C149.888 169.941 143.357 169.085 137.779 166.01C137.247 165.716 137.76 164.926 138.289 165.217Z" fill="white"/>
<path d="M185.212 143.66C185.316 144.84 185.711 145.976 186.362 146.965C187.012 147.955 187.898 148.767 188.939 149.329C189.474 149.616 188.961 150.406 188.429 150.122C187.281 149.495 186.304 148.597 185.583 147.505C184.862 146.413 184.419 145.161 184.292 143.858C184.27 143.737 184.295 143.611 184.362 143.507C184.429 143.403 184.533 143.328 184.653 143.298C184.775 143.273 184.902 143.296 185.007 143.364C185.111 143.431 185.185 143.538 185.212 143.66Z" fill="white"/>
<path d="M143.62 167.188C139.115 145.375 133.484 138.102 133.484 138.102L131.333 136.431L128.747 134.419L128.759 134.16L128.146 133.951L128.001 133.839L127.765 133.658L127.727 133.698L127.647 133.782L115.941 129.797L101.091 124.745L94.2137 115.792C93.0937 114.334 91.6518 113.156 90.001 112.35C88.3502 111.543 86.5353 111.131 84.6986 111.144L62.7363 111.307C59.7667 111.329 56.9127 112.463 54.7355 114.485L40.3 127.896L17.8067 138.655L17.7687 138.617L17.5325 138.786L14.0571 140.45L14.2005 141.198L12.0494 142.752C12.0494 142.752 6.41872 149.519 1.91414 169.817C0.768228 174.981 0.204168 186.06 0.000572146 199.712C-0.00965444 200.402 0.117304 201.088 0.374062 201.729C0.63082 202.37 1.01226 202.954 1.49619 203.446C1.98013 203.938 2.55691 204.329 3.193 204.596C3.82909 204.862 4.51179 205 5.20142 205H125.343L140.338 205C141.027 205 141.709 204.862 142.345 204.596C142.981 204.329 143.557 203.939 144.041 203.448C144.525 202.956 144.906 202.373 145.163 201.733C145.421 201.093 145.548 200.407 145.539 199.717C145.34 184.862 144.776 172.789 143.62 167.188Z" fill="#FF5B59"/>
<path d="M159.034 19.0232C154.36 19.0232 149.878 20.8828 146.572 24.1931C143.267 27.5033 141.41 31.9929 141.41 36.6742C141.41 41.3555 143.267 45.8451 146.572 49.1553C149.878 52.4655 154.36 54.3252 159.034 54.3252H290.376C295.05 54.3252 299.533 52.4655 302.838 49.1553C306.143 45.8451 308 41.3555 308 36.6742C308 31.9929 306.143 27.5033 302.838 24.1931C299.533 20.8828 295.05 19.0232 290.376 19.0232H159.034Z" fill="#E5E5E5"/>
<path d="M159.034 22.5955C155.306 22.5955 151.731 24.0788 149.094 26.719C146.458 29.3593 144.977 32.9403 144.977 36.6742C144.977 40.4082 146.458 43.9892 149.094 46.6294C151.731 49.2697 155.306 50.753 159.034 50.753H290.376C294.104 50.753 297.68 49.2697 300.316 46.6294C302.952 43.9892 304.433 40.4082 304.433 36.6742C304.433 32.9403 302.952 29.3593 300.316 26.719C297.68 24.0788 294.104 22.5955 290.376 22.5955H159.034Z" fill="white"/>
<path d="M77.1664 102.881C93.0572 102.881 105.939 89.9789 105.939 74.0638C105.939 58.1488 93.0572 45.2471 77.1664 45.2471C61.2756 45.2471 48.3936 58.1488 48.3936 74.0638C48.3936 89.9789 61.2756 102.881 77.1664 102.881Z" fill="#9E616A"/>
<path d="M69.8057 101.47C69.6828 101.198 69.5602 100.926 69.438 100.654C69.4851 100.655 69.5317 100.662 69.5788 100.663L69.8057 101.47Z" fill="#2F2E41"/>
<path d="M47.5935 46.5575C49.0488 45.3948 50.7496 44.325 52.6102 44.3852C54.4708 44.4452 56.3575 46.1282 55.9721 47.9522C59.3896 41.892 64.8292 37.231 71.3361 34.7873C77.8431 32.3437 85.0015 32.2735 91.555 34.5892C96.1793 36.2232 100.714 39.4921 101.776 44.2866C102.049 45.5174 102.108 46.8669 102.875 47.8663C103.842 49.1264 105.693 49.4115 107.218 48.9682C107.233 48.9638 107.248 48.9593 107.263 48.9547C107.521 48.8667 107.799 48.858 108.061 48.9299C108.324 49.0017 108.558 49.1508 108.735 49.3578C108.912 49.5649 109.023 49.8203 109.053 50.0911C109.084 50.3618 109.032 50.6356 108.906 50.8767L107.597 53.3207C109.247 53.6889 110.961 53.6524 112.593 53.2143C112.864 53.1431 113.15 53.1576 113.413 53.2559C113.676 53.3542 113.901 53.5315 114.059 53.7634C114.217 53.9953 114.3 54.2705 114.296 54.5512C114.291 54.8319 114.2 55.1044 114.035 55.3313C109.721 61.2638 102.513 65.0947 95.1572 65.0497C89.9294 65.0177 84.6476 63.2132 79.5597 64.4173C77.5914 64.8831 75.7522 65.7843 74.177 67.0549C72.6018 68.3254 71.3306 69.933 70.4567 71.7598C69.5828 73.5866 69.1284 75.5861 69.1267 77.6117C69.125 79.6373 69.5762 81.6376 70.447 83.4658C68.884 81.7535 65.8625 82.1589 64.2636 83.8377C62.6649 85.5165 62.2509 88.0222 62.412 90.3367C62.6584 93.8765 64.0432 97.2119 65.503 100.458C53.2634 100.072 41.6867 91.4733 37.79 79.8429C33.8769 68.1638 37.9779 54.2399 47.5935 46.5575Z" fill="#2F2E41"/>
<path opacity="0.2" d="M28.3198 160.603L36.39 204.578L41.2322 205L28.3198 160.603Z" fill="black"/>
<path opacity="0.2" d="M117.214 157.286L109.144 204.546L104.302 205L117.214 157.286Z" fill="black"/>
<path d="M54.4766 31.7578C52.9292 32.4049 51.3147 31.6957 50.6375 30.0717C49.9501 28.4227 50.5921 26.7489 52.1643 26.0914C53.7366 25.4339 55.3224 26.1448 56.0209 27.8203C56.709 29.4707 56.0739 31.0898 54.4766 31.7578ZM51.5125 22.8458L50.2822 23.3604C49.9749 23.4874 49.6311 23.4942 49.319 23.3795C49.0068 23.2649 48.749 23.0371 48.5965 22.7411L48.5357 22.6219C47.2119 20.2309 47.0603 17.3249 48.0876 13.9892C49.0392 10.9969 49.4344 8.89248 48.6396 6.98596C47.7205 4.78167 45.7581 4.09117 43.2555 5.09143C42.2848 5.49735 41.976 5.49088 41.2121 6.24977C41.046 6.41685 40.8479 6.54872 40.6298 6.6375C40.4117 6.72627 40.1779 6.77014 39.9425 6.7665C39.7149 6.76382 39.4902 6.71526 39.2817 6.62372C39.0733 6.53218 38.8854 6.39954 38.7292 6.2337C38.4284 5.91411 38.2598 5.49208 38.2576 5.05285C38.2554 4.61362 38.4197 4.18991 38.7173 3.86729C40.0012 2.52127 41.5497 1.45639 43.2651 0.73986C48.6421 -1.50882 51.349 1.81103 52.5876 4.78199C53.7992 7.68792 53.1177 10.3841 52.0226 13.876C51.1049 16.7775 51.1584 18.9275 52.2008 21.0653C52.2761 21.2269 52.318 21.4021 52.3239 21.5803C52.3299 21.7586 52.2998 21.9362 52.2355 22.1025C52.1713 22.2688 52.0741 22.4203 51.9498 22.5481C51.8256 22.6758 51.6768 22.7771 51.5125 22.8458Z" fill="#FEC091"/>
<path d="M188.046 45.0926H161.914C161.831 45.0932 161.749 45.0773 161.672 45.0458C161.595 45.0144 161.525 44.9681 161.466 44.9095C161.407 44.8509 161.36 44.7812 161.329 44.7044C161.297 44.6277 161.28 44.5453 161.28 44.4622C161.28 44.379 161.297 44.2967 161.329 44.22C161.36 44.1432 161.407 44.0735 161.466 44.0149C161.525 43.9563 161.595 43.91 161.672 43.8786C161.749 43.8471 161.831 43.8312 161.914 43.8318H188.046C188.212 43.8329 188.371 43.8998 188.488 44.0179C188.606 44.136 188.671 44.2957 188.671 44.4622C188.671 44.6286 188.606 44.7883 188.488 44.9064C188.371 45.0245 188.212 45.0915 188.046 45.0926Z" fill="#FEC091"/>
<path d="M221.196 45.3028H195.064C194.981 45.3034 194.899 45.2875 194.822 45.2561C194.745 45.2246 194.675 45.1783 194.616 45.1197C194.557 45.0611 194.511 44.9914 194.479 44.9146C194.447 44.8379 194.43 44.7556 194.43 44.6724C194.43 44.5893 194.447 44.5069 194.479 44.4302C194.511 44.3534 194.557 44.2837 194.616 44.2251C194.675 44.1665 194.745 44.1202 194.822 44.0888C194.899 44.0573 194.981 44.0414 195.064 44.042H221.196C221.279 44.0414 221.362 44.0573 221.438 44.0888C221.515 44.1202 221.585 44.1665 221.644 44.2251C221.703 44.2837 221.75 44.3534 221.782 44.4302C221.814 44.5069 221.83 44.5893 221.83 44.6724C221.83 44.7556 221.814 44.8379 221.782 44.9146C221.75 44.9914 221.703 45.0611 221.644 45.1197C221.585 45.1783 221.515 45.2246 221.438 45.2561C221.362 45.2875 221.279 45.3034 221.196 45.3028Z" fill="#FEC091"/>
<path d="M254.346 45.5128H228.214C228.048 45.5116 227.889 45.4447 227.772 45.3266C227.655 45.2085 227.589 45.0488 227.589 44.8824C227.589 44.7159 227.655 44.5562 227.772 44.4381C227.889 44.32 228.048 44.2531 228.214 44.252H254.346C254.429 44.2514 254.512 44.2673 254.589 44.2987C254.665 44.3301 254.735 44.3765 254.794 44.4351C254.853 44.4937 254.9 44.5634 254.932 44.6401C254.964 44.7169 254.98 44.7992 254.98 44.8824C254.98 44.9655 254.964 45.0478 254.932 45.1246C254.9 45.2014 254.853 45.271 254.794 45.3296C254.735 45.3882 254.665 45.4346 254.589 45.466C254.512 45.4974 254.429 45.5133 254.346 45.5128Z" fill="#FEC091"/>
<path d="M287.496 45.7229H261.364C261.198 45.7218 261.039 45.6549 260.922 45.5368C260.805 45.4187 260.739 45.259 260.739 45.0925C260.739 44.9261 260.805 44.7664 260.922 44.6483C261.039 44.5302 261.198 44.4633 261.364 44.4622H287.496C287.662 44.4633 287.821 44.5302 287.939 44.6483C288.056 44.7664 288.121 44.9261 288.121 45.0925C288.121 45.259 288.056 45.4187 287.939 45.5368C287.821 45.6549 287.662 45.7218 287.496 45.7229Z" fill="#FEC091"/>
<path d="M174.923 39.291C177.605 39.291 179.779 37.1132 179.779 34.4268C179.779 31.7403 177.605 29.5625 174.923 29.5625C172.24 29.5625 170.066 31.7403 170.066 34.4268C170.066 37.1132 172.24 39.291 174.923 39.291Z" fill="#FEC091"/>
<path d="M208.273 39.291C210.955 39.291 213.13 37.1132 213.13 34.4268C213.13 31.7403 210.955 29.5625 208.273 29.5625C205.59 29.5625 203.416 31.7403 203.416 34.4268C203.416 37.1132 205.59 39.291 208.273 39.291Z" fill="#FEC091"/>
<path d="M241.623 39.291C244.306 39.291 246.48 37.1132 246.48 34.4268C246.48 31.7403 244.306 29.5625 241.623 29.5625C238.941 29.5625 236.766 31.7403 236.766 34.4268C236.766 37.1132 238.941 39.291 241.623 39.291Z" fill="#FEC091"/>
<path d="M274.974 39.291C277.656 39.291 279.83 37.1132 279.83 34.4268C279.83 31.7403 277.656 29.5625 274.974 29.5625C272.291 29.5625 270.117 31.7403 270.117 34.4268C270.117 37.1132 272.291 39.291 274.974 39.291Z" fill="#FEC091"/>
</g>
<defs>
<clipPath id="clip0_1_914">
<rect width="308" height="205" fill="white"/>
</clipPath>
</defs>
</svg>
