<svg width="430" height="444" viewBox="0 0 430 444" fill="none" xmlns="http://www.w3.org/2000/svg">
<path opacity="0.3" fill-rule="evenodd" clip-rule="evenodd" d="M353.197 151.455C386.778 205.006 381.863 276.4 336.907 326.372C294.826 373.149 227.212 374.637 169.587 355.553C105.952 334.478 39.9582 296.108 44.2337 229.445C48.7957 158.314 115.057 105.123 186.81 87.0114C252.983 70.3078 319.039 96.9833 353.197 151.455Z" fill="#FEC091"/>
<path opacity="0.3" fill-rule="evenodd" clip-rule="evenodd" d="M80.5818 97.8678C69.1591 85.6904 68.4948 65.3127 80.1994 47.5877C91.1557 30.9958 110.932 24.9415 128.387 25.474C147.662 26.0619 168.138 31.2907 168.851 50.292C169.611 70.5666 151.755 90.9685 131.256 102.017C112.351 112.207 92.201 110.255 80.5818 97.8678Z" fill="#FEC091"/>
<path d="M146.332 235.037L146.702 238.432L149.156 240.14L146.24 240.801L144.623 243.809L144.253 240.414L141.799 238.706L144.715 238.045L146.332 235.037Z" fill="#FEC091"/>
<path d="M209.978 272.324L210.348 275.719L212.802 277.427L209.886 278.088L208.269 281.096L207.899 277.701L205.445 275.993L208.361 275.332L209.978 272.324Z" fill="#FEC091"/>
<path d="M174.187 116.898L176.843 120.258L180.589 120.436L177.932 123.083L178.219 127.356L175.563 123.996L171.818 123.818L174.474 121.172L174.187 116.898Z" fill="#FEC091"/>
<path d="M292.207 91.1895L292.297 94.1514L294.305 95.7946L291.738 96.1697L290.136 98.6623L290.045 95.7004L288.038 94.0572L290.605 93.6821L292.207 91.1895Z" fill="#FEC091"/>
<path d="M330.781 174.766L330.871 177.728L332.879 179.372L330.311 179.747L328.709 182.239L328.619 179.277L326.611 177.634L329.178 177.259L330.781 174.766Z" fill="#FEC091"/>
<path d="M159.65 82.824L159.74 85.7859L161.748 87.4291L159.181 87.8042L157.579 90.2968L157.488 87.335L155.481 85.6917L158.048 85.3166L159.65 82.824Z" fill="#FEC091"/>
<path d="M298.087 201.42L298.295 205.698L301.24 208.02L297.54 208.63L295.289 212.274L295.081 207.996L292.136 205.674L295.836 205.065L298.087 201.42Z" fill="#FEC091"/>
<path d="M77.4498 152.944L77.3218 155.343L78.8317 156.806L76.733 156.935L75.2698 158.839L75.3977 156.441L73.8879 154.978L75.9865 154.849L77.4498 152.944Z" fill="#FEC091"/>
<g opacity="0.5">
<ellipse cx="205.181" cy="385.279" rx="117.854" ry="5.26174" fill="#FEC091"/>
</g>
<ellipse cx="160.002" cy="307.016" rx="18.8589" ry="23.232" transform="rotate(6.47991 160.002 307.016)" fill="#25223A"/>
<line x1="237.235" y1="316.186" x2="40.8579" y2="293.881" stroke="#25223A" stroke-width="14.4548" stroke-linecap="round"/>
<path d="M169.723 154.354L255.54 164.101L172.824 306.272L128.521 301.24C95.9711 297.543 61.5638 283.417 65.5073 250.896C70.7549 207.619 94.769 161.305 137.808 154.376C149.304 152.525 160.53 152.809 169.723 154.354Z" fill="#45CFCE"/>
<path d="M273.761 320.763C272.313 333.512 265.851 346.252 252.4 341.718C246.246 339.644 235.913 331.318 236.284 316.506C237.732 303.758 247.295 294.376 257.644 295.551C267.993 296.727 275.209 308.014 273.761 320.763Z" fill="#25223A"/>
<ellipse cx="263.2" cy="318.738" rx="18.8589" ry="23.232" transform="rotate(6.47991 263.2 318.738)" fill="#464071"/>
<ellipse cx="263.199" cy="318.737" rx="10.6594" ry="13.3926" transform="rotate(6.47991 263.199 318.737)" fill="#37325F"/>
<path opacity="0.5" d="M281.938 320.866C282.321 317.492 282.1 314.09 281.288 310.901C280.477 307.712 279.095 304.813 277.241 302.408C275.388 300.003 273.106 298.15 270.558 296.981C268.01 295.811 265.257 295.353 262.493 295.639C259.729 295.925 257.022 296.947 254.561 298.634C252.1 300.322 249.946 302.633 248.251 305.405C246.555 308.177 245.36 311.342 244.748 314.679C244.136 318.015 244.123 321.441 244.709 324.715L244.918 324.493C254.607 314.18 270.432 312.63 281.938 320.866Z" fill="#25223A"/>
<path d="M173.367 306.334L226 312.312C231.93 312.986 237.633 310.345 241.862 306.135C256.675 291.388 267.049 297.91 272.911 307.632C276.487 313.563 281.881 318.659 288.763 319.441L323.274 323.361C336.171 322.185 340.79 311.229 341.487 305.899C343.997 290.585 344.789 275.305 344.474 260.933C343.372 210.722 297.663 166.341 247.501 163.853C204.711 161.729 179.118 188.485 167.465 229.712C163.552 243.556 160.564 256.79 159.52 265.976C156.826 291.637 167.628 303.573 173.367 306.334Z" fill="#2AB0AF"/>
<line opacity="0.7" x1="175.289" y1="180.232" x2="112.707" y2="173.124" stroke="white" stroke-width="4.2514" stroke-linecap="round"/>
<line opacity="0.8" x1="175.289" y1="180.232" x2="112.707" y2="173.124" stroke="#FEC091" stroke-width="4.2514" stroke-linecap="round"/>
<path d="M93.5973 206.578L96.6618 199.62C99.6626 192.806 106.747 188.737 114.144 189.577L147.241 193.336C158.288 194.591 165.18 205.935 161.202 216.317L158.52 223.319C155.746 230.56 148.425 235.007 140.72 234.132L107.241 230.33C95.8499 229.036 88.9764 217.071 93.5973 206.578Z" fill="#2AB0AF"/>
<path d="M93.7015 206.535L99.0654 194.466C98.7253 208.967 107.914 221.983 121.693 226.516L147.018 234.848L107.322 230.339C95.9071 229.042 89.0356 217.034 93.7015 206.535Z" fill="#27A2A1"/>
<circle cx="53.8126" cy="309.535" r="8.74617" transform="rotate(6.47991 53.8126 309.535)" fill="#25223A"/>
<line x1="54.2485" y1="301.393" x2="56.298" y2="283.348" stroke="#25223A" stroke-width="4.2514" stroke-linecap="round"/>
<path d="M194.228 221.229C195.608 209.08 206.575 200.351 218.724 201.73C230.873 203.11 239.602 214.077 238.223 226.226L229.418 303.745C229.153 306.078 227.047 307.754 224.714 307.49L189.168 303.452C186.835 303.187 185.158 301.081 185.423 298.748L194.228 221.229Z" fill="#FEC091"/>
<path d="M197.487 221.6C198.662 211.251 208.005 203.814 218.354 204.989C228.703 206.165 236.139 215.507 234.964 225.856L226.529 300.116C226.264 302.449 224.158 304.126 221.825 303.861L192.797 300.564C190.464 300.299 188.787 298.193 189.052 295.86L197.487 221.6Z" fill="#FFB362"/>
<path opacity="0.7" d="M235.278 220.665L224.622 262.368C220.137 279.924 207.246 294.118 190.202 300.269L221.553 303.83C223.886 304.095 225.992 302.418 226.257 300.085L235.278 220.665Z" fill="#E87F0F"/>
<path d="M257.873 222.741C258.933 213.41 267.358 206.704 276.69 207.764L298.296 210.218C307.628 211.278 314.334 219.702 313.274 229.034L312.424 236.519C311.364 245.851 302.94 252.557 293.608 251.497L272.001 249.043C262.669 247.983 255.963 239.558 257.023 230.226L257.873 222.741Z" fill="#27A2A1"/>
<path d="M278.318 247.55C294.495 246.725 308.612 236.311 314.175 221.099L312.424 236.52C311.364 245.851 302.94 252.557 293.608 251.497L264.881 248.235L278.318 247.55Z" fill="#3D696B" fill-opacity="0.5"/>
<rect x="197.26" y="252.657" width="8.74617" height="2.18654" rx="1.09327" transform="rotate(6.47991 197.26 252.657)" fill="#FF5B59"/>
<rect x="234.441" y="254.68" width="8.74617" height="2.18654" rx="1.09327" transform="rotate(-83.5201 234.441 254.68)" fill="#3D696B" fill-opacity="0.5"/>
<rect x="231.356" y="281.837" width="8.74617" height="2.18654" rx="1.09327" transform="rotate(-83.5201 231.356 281.837)" fill="#3D696B" fill-opacity="0.5"/>
<line x1="316.732" y1="312.685" x2="308.525" y2="311.752" stroke="#3D696B" stroke-opacity="0.5" stroke-width="5.95196" stroke-linecap="round"/>
<line x1="317.349" y1="307.252" x2="309.142" y2="306.32" stroke="#3D696B" stroke-opacity="0.5" stroke-width="5.95196" stroke-linecap="round"/>
<line x1="317.966" y1="301.821" x2="309.758" y2="300.888" stroke="#3D696B" stroke-opacity="0.5" stroke-width="5.95196" stroke-linecap="round"/>
<path d="M188.664 144.279C188.929 141.946 191.035 140.269 193.368 140.534L254.985 147.533C257.318 147.798 258.994 149.904 258.729 152.237L257.358 164.307L187.293 156.349L188.664 144.279Z" fill="#FF5B59"/>
<path d="M188.664 144.279C188.929 141.946 191.035 140.269 193.368 140.534L254.985 147.533C257.318 147.798 258.994 149.904 258.729 152.237L257.358 164.307L187.293 156.349L188.664 144.279Z" fill="#FF5B59"/>
<path d="M232.512 159.046C242.032 159.614 251.427 156.652 258.901 150.728L257.359 164.307L187.293 156.349L232.512 159.046Z" fill="#FF5B59"/>
<path d="M206.612 136.415C206.877 134.082 208.983 132.406 211.316 132.671L242.517 136.215C244.85 136.48 246.526 138.586 246.261 140.919L245.631 146.471L205.981 141.968L206.612 136.415Z" fill="#FF908E"/>
<path d="M232.619 143.132C237.497 143.346 242.322 142.046 246.433 139.41L245.631 146.471L205.981 141.967L232.619 143.132Z" fill="#FF6E6C"/>
<path d="M220.337 134.246C220.626 131.696 222.928 129.864 225.478 130.153L227.371 130.368C229.968 130.663 231.885 132.931 231.743 135.541" stroke="#FF908E" stroke-width="4.2514"/>
<path d="M290.103 182.643L290.327 185.598L292.407 187.149L289.86 187.64L288.372 190.202L288.148 187.248L286.068 185.697L288.615 185.206L290.103 182.643Z" fill="#FEC091"/>
<path d="M178.781 237.702L180.124 238.944L181.76 239.248L180.822 240.623L180.757 242.451L179.414 241.209L177.778 240.905L178.716 239.53L178.781 237.702Z" fill="#FEC091"/>
</svg>
